<svg xmlns="http://www.w3.org/2000/svg" viewBox="0 0 120 190">
  <path fill="currentColor" d="M84.3 129a19 19 0 0 1-.5 2.6c-.8 2.2-2.5 3.4-5.2 3.4a1.3 1.3 0 0 0-1.4 1c-.7 1.8-1.7 3.3-3.7 3.8a6 6 0 0 1-3.9-.4l-1.5-.8a4.5 4.5 0 0 1-.3.4c-2 3.2-5 4-8.3 2-.4-.2-1-.8-1.4-.7s-.8.7-1.1 1.1a2.4 2.4 0 0 1-2.5.6 4.2 4.2 0 0 1-3.2-4.6c-1.5 2-3.4 2.2-5.4 1a4.3 4.3 0 0 1-2.1-5c-2.1 1.4-4 1-5.7-.6A4 4 0 0 1 37 128a4.3 4.3 0 0 1-5 .4 4.3 4.3 0 0 1-1.3-6.7c.8-.8 1.5-1.8 2.3-2.8l-2.5-3a1.6 1.6 0 0 1-.2-2.3 17.6 17.6 0 0 0 1-1.9l2 2.4 2 2.3a4.5 4.5 0 0 1 5.8.7c1.5 1.5 1.6 3.4.5 5.5a4.7 4.7 0 0 1 6.5 5.6 4 4 0 0 1 5 .3 4 4 0 0 1 1.6 4.9 3.7 3.7 0 0 1 4.5 1 3 3 0 0 1 .8 3.5 3.4 3.4 0 0 0 4.5.7 3.3 3.3 0 0 0 .7-.8.8.8 0 0 0-.3-1.3l-7-5.2a1.4 1.4 0 0 1 0-2.2 1.3 1.3 0 0 1 1.7 0l9 6.3 2 1.3a2.4 2.4 0 0 0 3.4-.7 2.2 2.2 0 0 0-.5-3.3l-11.5-8.3a2.5 2.5 0 0 1-.8-.9 1.3 1.3 0 0 1 .4-1.7 1.6 1.6 0 0 1 2 0l6.3 4.5 7.4 5.3a2.6 2.6 0 0 0 3.2 0 2.5 2.5 0 0 0 .7-3 3.6 3.6 0 0 0-1.1-1.2L68 119l-2.9-2-.2-.3a1.7 1.7 0 0 1-.6-2.3 1.7 1.7 0 0 1 2.4-.1l4.1 3q5.9 4 11.7 8.3c1.5 1 3.3.5 4.5-1a2.8 2.8 0 0 0-.6-3.9l-20-17.4-3-2.8c-2.1-2-6.5-1.3-7.7 1.3a18.2 18.2 0 0 0-.5 2c-1 3.2-2.9 5.7-6.2 6.6a12.3 12.3 0 0 1-4 0 2.7 2.7 0 0 1-2-1.6 2 2 0 0 1-.2-1.5 16.6 16.6 0 0 0 1.7-7.4 7.4 7.4 0 0 1 1.1-3.6l1.1-2H40c.7-1.4 1.2-2.5 1.9-3.6 0-.2.5-.2.8-.2h9.6a2.2 2.2 0 0 0 1-.3A19.1 19.1 0 0 1 67 88.3l6.4 1.7c1.6.3 3.3.5 5 .6a1 1 0 0 1 1 .6c3.5 7.6 7.2 15.1 10.8 22.7a1.6 1.6 0 0 1 0 1 28.8 28.8 0 0 1-1.3 2.8 1 1 0 0 0 .2 1.3 6.1 6.1 0 0 1 0 8 5.5 5.5 0 0 1-3.8 1.9zm4-46.7a1.9 1.9 0 0 1 2 1.1l5.3 11.1 7 14.4c.6 1.5.4 2.3-1.2 3l-4.6 2.3c-1.6.7-2.4.4-3-1L81.5 87.7a1.8 1.8 0 0 1 1-2.7l4.8-2.4a5.4 5.4 0 0 1 1-.3zM32 82a10.3 10.3 0 0 1 1.2.4l5 2.4a1.8 1.8 0 0 1 .8 2.7l-8.5 18-3.7 7.9a1.8 1.8 0 0 1-2.7 1q-2.7-1.2-5.3-2.6a1.8 1.8 0 0 1-.8-2.7l12.2-25.7a2 2 0 0 1 1.8-1.4z" />
</svg>
