<svg xmlns="http://www.w3.org/2000/svg" viewBox="0 0 352 158">
  <title>
    Bruderland
  </title>
  <path fill="currentColor" d="M67 51.1c0-5-2.5-9.3-6.8-11.3l-2.5-1c3.6-1.7 4.9-2.8 6.5-5.8a14 14 0 0 0 1.7-6.5 14 14 0 0 0-7.4-12.1A32.8 32.8 0 0 0 44.3 12H18v56h27c7.2 0 10.6-.7 14.2-2.8A16.6 16.6 0 0 0 67 51.1zM45.9 29.9c0 3.3-2 4.7-6.6 4.7h-1.5v-9.3h1.6c4.4 0 6.5 1.5 6.5 4.6zm.2 20c0 3.1-2.2 4.8-6.7 4.8h-1.6v-9.3h1.7c4.5 0 6.6 1.4 6.6 4.4zm74.7-22.6c0-9.6-7.2-15.3-19.4-15.3H72.6v56h21.1V47.2H95c3.1 0 4 1 4 4.3V68h21.5V54.4c0-4-.5-6.9-1.9-9.4s-2.5-3.6-5.8-5c3.9-1.7 5.2-3 6.7-6.5a15.8 15.8 0 0 0 1.3-6.2zm-18.7 3c0 3-2.2 4.8-6.2 4.8l-2.1-.1v-9.7h1.4c4.7 0 7 1.6 7 5zm71.2 16V12H152v34.1c0 2.2-1 3.3-2.7 3.3s-2.6-1.1-2.6-3.3V12h-21.3v34.4c0 6 .9 9.5 3.2 13a18.8 18.8 0 0 0 5.4 5.2 27.6 27.6 0 0 0 15.6 4.4c8.9 0 16.7-3.6 20.6-9.6 2.2-3.4 3-6.7 3-13zm59.5-6.1c0-10.6-5.1-20-13.6-24.6a33 33 0 0 0-15.7-3.6H180v56h21.3c8.6 0 12.7-.8 17.5-3.4a26 26 0 0 0 8-6.8 26.7 26.7 0 0 0 6-17.6zM211 40c0 2.8-1.4 5.4-3.5 6.5-1.5.7-2.6.9-5.5.9h-1.8V32.7h1.6c2.7 0 3.5 0 5 .7A6.7 6.7 0 0 1 211 40zm68.3 28V52h-20v-4.4h20V32.4h-20v-4.3h20V12h-41v56zM333 27.4c0-9.7-7.2-15.4-19.4-15.4h-28.8v56H306V47.2h1.3c3.1 0 4 1 4 4.3V68h21.5V54.4c0-4-.5-6.9-1.9-9.4s-2.5-3.6-5.8-5c3.9-1.7 5.1-3 6.7-6.5a15.8 15.8 0 0 0 1.2-6.2zm-18.7 2.8c0 3-2.2 4.9-6.2 4.9L306 35v-9.7h1.3c4.7 0 7 1.6 7 5zM163.6 137v-17.9h-16.8V80.6H125V137zm56.2 0l-11.6-56.4h-30L166.6 137h22l1.4-12.7h6.6L198 137zM196 111.4h-5.6l1.8-16.1h2.2zm79.6 25.6V80.6h-21v21l-10.3-21H224V137h21v-23l10.8 23zm59.4-28a28 28 0 0 0-13.6-24.8c-4-2.3-9.7-3.6-15.6-3.6h-23.4V137h21.2c8.6 0 12.6-.8 17.5-3.4a26 26 0 0 0 7.9-6.9 27 27 0 0 0 6-17.7zm-21.7-.2c0 2.9-1.4 5.5-3.5 6.5-1.5.8-2.6 1-5.5 1h-1.8v-14.9h1.6c2.7 0 3.5.1 5 .7 2.6 1 4.2 3.5 4.2 6.7zM84.3 129a19 19 0 0 1-.5 2.6c-.8 2.2-2.5 3.4-5.2 3.4a1.3 1.3 0 0 0-1.4 1c-.7 1.8-1.7 3.3-3.7 3.8a6 6 0 0 1-3.9-.4l-1.5-.8a4.5 4.5 0 0 1-.3.4c-2 3.2-5 4-8.3 2-.4-.2-1-.8-1.4-.7s-.8.7-1.1 1.1a2.4 2.4 0 0 1-2.5.6 4.2 4.2 0 0 1-3.2-4.6c-1.5 2-3.4 2.2-5.4 1a4.3 4.3 0 0 1-2.1-5c-2.1 1.4-4 1-5.7-.6A4 4 0 0 1 37 128a4.3 4.3 0 0 1-5 .4 4.3 4.3 0 0 1-1.3-6.7c.8-.8 1.5-1.8 2.3-2.8l-2.5-3a1.6 1.6 0 0 1-.2-2.3 17.6 17.6 0 0 0 1-1.9l2 2.4 2 2.3a4.5 4.5 0 0 1 5.8.7c1.5 1.5 1.6 3.4.5 5.5a4.7 4.7 0 0 1 6.5 5.6 4 4 0 0 1 5 .3 4 4 0 0 1 1.6 4.9 3.7 3.7 0 0 1 4.5 1 3 3 0 0 1 .8 3.5 3.4 3.4 0 0 0 4.5.7 3.3 3.3 0 0 0 .7-.8.8.8 0 0 0-.3-1.3l-7-5.2a1.4 1.4 0 0 1 0-2.2 1.3 1.3 0 0 1 1.7 0l9 6.3 2 1.3a2.4 2.4 0 0 0 3.4-.7 2.2 2.2 0 0 0-.5-3.3L62 124.4a2.5 2.5 0 0 1-.8-.9 1.3 1.3 0 0 1 .4-1.7 1.6 1.6 0 0 1 2 0l6.3 4.5 7.4 5.3a2.6 2.6 0 0 0 3.2 0 2.5 2.5 0 0 0 .7-3 3.6 3.6 0 0 0-1.1-1.2L68 119l-2.9-2-.2-.3a1.7 1.7 0 0 1-.6-2.3 1.7 1.7 0 0 1 2.4-.1l4.1 3q5.9 4 11.7 8.3c1.5 1 3.3.5 4.5-1a2.8 2.8 0 0 0-.6-3.9l-20-17.4-3-2.8c-2.1-2-6.5-1.3-7.7 1.3a18.2 18.2 0 0 0-.5 2c-1 3.2-2.9 5.7-6.2 6.6a12.3 12.3 0 0 1-4 0 2.7 2.7 0 0 1-2-1.6 2 2 0 0 1-.2-1.5 16.6 16.6 0 0 0 1.7-7.4 7.4 7.4 0 0 1 1.1-3.6l1.1-2H40c.7-1.4 1.2-2.5 1.9-3.6 0-.2.5-.2.8-.2h9.6a2.2 2.2 0 0 0 1-.3A19.1 19.1 0 0 1 67 88.3l6.4 1.7c1.6.3 3.3.5 5 .6a1 1 0 0 1 1 .6c3.5 7.6 7.2 15.1 10.8 22.7a1.6 1.6 0 0 1 0 1 28.8 28.8 0 0 1-1.3 2.8 1 1 0 0 0 .2 1.3 6.1 6.1 0 0 1 0 8 5.5 5.5 0 0 1-3.8 1.9zm4-46.7a1.9 1.9 0 0 1 2 1.1l5.3 11.1 7 14.4c.6 1.5.4 2.3-1.2 3l-4.6 2.3c-1.6.7-2.4.4-3-1L81.5 87.7a1.8 1.8 0 0 1 1-2.7l4.8-2.4a5.4 5.4 0 0 1 1-.3zM32 82a10.3 10.3 0 0 1 1.2.4l5 2.4a1.8 1.8 0 0 1 .8 2.7l-8.5 18-3.7 7.9a1.8 1.8 0 0 1-2.7 1q-2.7-1.2-5.3-2.6a1.8 1.8 0 0 1-.8-2.7l12.2-25.7A2 2 0 0 1 32 82z"/>
</svg>
