<svg xmlns="http://www.w3.org/2000/svg" xmlns:xlink="http://www.w3.org/1999/xlink" viewBox="0 0 250 250">
  <defs>
    <path id="handshake-right" d="M157.3 111.2c-.4 2.2-.6 4.2-1.2 6.1-1.8 5.2-6 8-12.3 8-2 0-2.7.6-3.4 2.4-1.5 4.2-3.9 7.8-8.7 9a14 14 0 0 1-9-1l-3.6-2-.8 1.1c-4.8 7.5-11.8 9.2-19.4 4.7-1.1-.7-2.4-2-3.5-1.8-1 0-1.7 1.7-2.6 2.6-1.6 1.7-3.7 2-5.9 1.4-5-1.3-7.7-5.2-7.5-11-3.6 5-8 5.2-12.6 2.4-4.3-2.6-6.3-6.4-5-11.8-5 3.3-9.4 2.3-13.4-1.3-3.3-3-4.7-6.7-2.8-11.4a10 10 0 0 1-12 1c-5.8-3-7.6-10.9-3-15.8 2-2 3.6-4.3 5.6-6.6-2-2.4-3.9-4.9-6-7-1.6-1.9-1.9-3.4-.5-5.4.9-1.3 1.5-2.8 2.3-4.5l4.7 5.5 4.6 5.4c6-3.5 10.9-1.1 13.7 1.8 3.5 3.4 3.9 8 1.2 13 4.5-2.3 8.5-1.5 12 1.5 3.7 3 5 6.9 3.5 11.7 4.3-2.8 8.1-2 11.7.7 3.7 2.9 5.4 6.6 3.8 11.5 4.3-2 7.8-.8 10.7 2.3 2.3 2.4 3.3 5.2 1.8 8.4 3.1 3.2 7.6 3.8 10.6 1.5.6-.5 1.1-1.2 1.6-1.9.7-1.1.6-2-.6-3l-16.4-12.1c-2-1.6-2.1-3.9-.3-5.4 1.5-1.2 2.9-.9 4.3.1l21 14.9 4.7 3.2c2.9 1.8 6.1 1.2 8-1.7 2-2.9 1.6-5.9-1.2-8l-27-19.5a5.8 5.8 0 0 1-2-2c-.8-1.5-.4-3 .9-4 1.4-1 3.1-1 4.6 0l14.8 10.5c6 4.2 11.7 8.4 17.7 12.5a6.2 6.2 0 0 0 7.3 0c2-1.7 2.9-4.6 1.7-7-.5-1-1.5-2-2.5-2.7l-27.8-20-7-4.8-.6-.5c-1.9-1.6-2.4-3.8-1.3-5.4 1.1-1.5 3.6-1.7 5.6-.3 3.3 2.2 6.5 4.6 9.7 6.9l27.7 19.6c3.4 2.4 7.6 1.4 10.5-2.3 2.1-2.8 1.5-6.6-1.4-9.1l-47.4-41-7-6.7c-4.8-4.8-15.2-3-18 3-.7 1.5-.7 3.2-1.2 4.7C86.3 59.1 82 64.9 74 67.1c-2.9.7-6.2.5-9.2.2-2.3-.2-4-1.9-5-4-.5-1-.7-2.6-.2-3.6 3-5.5 3.7-11.4 3.9-17.4.1-3.2 1.1-5.9 2.7-8.5l2.5-4.6h-16l4.4-8.5c.3-.4 1.4-.5 2.1-.5h22.6a5 5 0 0 0 2.4-.5 45 45 0 0 1 32.4-4.5c5 1.1 10 2.8 15.1 3.9 3.8.8 7.8 1.1 11.6 1.5 1 .1 1.8.3 2.3 1.4l25.6 53.5c.3.6.2 1.7 0 2.4a69 69 0 0 1-3 6.7c-.7 1.2-.5 2 .3 3 4.7 6.3 4.6 13.1 0 19-2.4 2.9-5.6 3.8-9 4.3l-2.2.3zM166.7 1c2.5 0 3.8 1 4.6 2.6L184 29.8l16.2 34c1.7 3.5 1 5.4-2.5 7.1l-11.1 5.3c-3.4 1.6-5.5.8-7-2.4l-28.8-60.1c-1.4-3-.7-5 2.2-6.4l11.6-5.6c.9-.4 1.8-.6 2.2-.7zm-133-1c1 .3 2 .5 2.9 1a638 638 0 0 1 11.6 5.6c2.7 1.3 3.5 3.6 2.2 6.3L30 55.5 21.4 74C20 76.8 18 77.7 15 76.4c-4.2-1.9-8.3-3.9-12.5-6C0 69.1-.7 66.8.7 64L29.5 3.3c.8-1.9 2-3.1 4.2-3.3z"/>
  </defs>

  <mask id="handshake-left" fill="#fff">
    <use xlink:href="#handshake-right"/>
  </mask>

  <g fill="#000" mask="url(#handshake-left)" id="handshake">
    <path d="M-8-38h217v217H-8z"/>
  </g>
</svg>
